<svg width="24" height="24" viewBox="0 0 24 24" fill="none" xmlns="http://www.w3.org/2000/svg">
<path d="M14.78 3.31367C18.0422 3.31367 20.6868 5.95825 20.6868 9.2205C20.6868 12.4828 18.0422 15.1273 14.78 15.1273H13.2166C10.6796 15.126 8.6223 17.1823 8.6223 19.7193V19.8313L4.4223 15.6313C2.35948 13.5665 1.74345 10.4624 2.86143 7.76629C3.9794 5.07018 6.61125 3.31288 9.52997 3.31367L14.78 3.31367ZM14.78 2.00233H9.52997C6.08075 2.00234 2.97034 4.08045 1.64979 7.26778C0.329225 10.456 1.05891 14.1249 3.4983 16.5647L9.93363 23V19.7193C9.93363 17.9066 11.4039 16.4374 13.2166 16.4387H14.7823C18.7683 16.4387 22.0005 13.2065 22.0005 9.21933C22.0005 5.2322 18.7683 2 14.7811 2L14.78 2.00233Z" fill="currentColor"/>
<circle cx="8.34974" cy="9.58326" r="1.28333" fill="currentColor"/>
<circle cx="11.6154" cy="9.58326" r="1.28333" fill="currentColor"/>
<circle cx="14.8829" cy="9.58326" r="1.28333" fill="currentColor"/>
</svg>
