<svg width="32" height="32" viewBox="0 0 32 32" fill="none" xmlns="http://www.w3.org/2000/svg">
<path d="M11.9998 15.6667C11.5578 15.6667 11.1339 15.8423 10.8213 16.1549C10.5088 16.4675 10.3332 16.8914 10.3332 17.3334C10.3332 17.7754 10.5088 18.1994 10.8213 18.5119C11.1339 18.8245 11.5578 19.0001 11.9998 19.0001C12.2187 19.0001 12.4354 18.957 12.6376 18.8732C12.8399 18.7895 13.0236 18.6667 13.1783 18.5119C13.3331 18.3572 13.4559 18.1734 13.5396 17.9712C13.6234 17.769 13.6665 17.5523 13.6665 17.3334C13.6665 17.1145 13.6234 16.8978 13.5396 16.6956C13.4559 16.4934 13.3331 16.3097 13.1783 16.1549C13.0236 16.0001 12.8399 15.8774 12.6376 15.7936C12.4354 15.7099 12.2187 15.6667 11.9998 15.6667ZM19.9998 15.6667C19.5578 15.6667 19.1339 15.8423 18.8213 16.1549C18.5088 16.4675 18.3332 16.8914 18.3332 17.3334C18.3332 17.7754 18.5088 18.1994 18.8213 18.5119C19.1339 18.8245 19.5578 19.0001 19.9998 19.0001C20.4419 19.0001 20.8658 18.8245 21.1783 18.5119C21.4909 18.1994 21.6665 17.7754 21.6665 17.3334C21.6665 16.8914 21.4909 16.4675 21.1783 16.1549C20.8658 15.8423 20.4419 15.6667 19.9998 15.6667ZM15.9998 2.66675C14.2489 2.66675 12.5151 3.01162 10.8974 3.68169C9.27972 4.35175 7.80986 5.33388 6.57175 6.57199C4.07126 9.07248 2.6665 12.4639 2.6665 16.0001C2.6665 19.5363 4.07126 22.9277 6.57175 25.4282C7.80986 26.6663 9.27972 27.6484 10.8974 28.3185C12.5151 28.9885 14.2489 29.3334 15.9998 29.3334C19.5361 29.3334 22.9274 27.9287 25.4279 25.4282C27.9284 22.9277 29.3332 19.5363 29.3332 16.0001C29.3332 14.2491 28.9883 12.5153 28.3182 10.8976C27.6482 9.27996 26.666 7.81011 25.4279 6.57199C24.1898 5.33388 22.72 4.35175 21.1023 3.68169C19.4846 3.01162 17.7508 2.66675 15.9998 2.66675ZM15.9998 26.6667C10.1198 26.6667 5.33317 21.8801 5.33317 16.0001C5.33317 15.6134 5.33317 15.2267 5.39984 14.8534C8.5465 13.4534 11.0398 10.8801 12.3465 7.69341C13.8708 9.85659 16.0059 11.5158 18.4785 12.4588C20.9511 13.4017 23.6488 13.5856 26.2265 12.9867C26.5065 13.9334 26.6665 14.9467 26.6665 16.0001C26.6665 21.8801 21.8798 26.6667 15.9998 26.6667Z" fill="currentColor"/>
</svg>
