<svg width="32" height="32" viewBox="0 0 32 32" fill="none" xmlns="http://www.w3.org/2000/svg">
<path d="M18.3332 17.3334C18.3332 16.8914 18.5088 16.4675 18.8213 16.1549C19.1339 15.8423 19.5578 15.6667 19.9998 15.6667C20.4419 15.6667 20.8658 15.8423 21.1783 16.1549C21.4909 16.4675 21.6665 16.8914 21.6665 17.3334C21.6665 17.7754 21.4909 18.1994 21.1783 18.5119C20.8658 18.8245 20.4419 19.0001 19.9998 19.0001C19.5578 19.0001 19.1339 18.8245 18.8213 18.5119C18.5088 18.1994 18.3332 17.7754 18.3332 17.3334ZM29.3332 16.0001V29.3334H2.6665V16.0001C2.6665 8.66675 8.6665 2.66675 15.9998 2.66675C23.3332 2.66675 29.3332 8.66675 29.3332 16.0001ZM5.33317 16.0001C5.33317 21.8801 10.1198 26.6667 15.9998 26.6667C21.8798 26.6667 26.6665 21.8801 26.6665 16.0001C26.6665 14.9467 26.5065 13.9334 26.2265 12.9867C23.6488 13.5856 20.9511 13.4017 18.4785 12.4588C16.0059 11.5158 13.8708 9.85659 12.3465 7.69341C11.0398 10.8801 8.5465 13.4534 5.39984 14.8534C5.33317 15.2267 5.33317 15.6134 5.33317 16.0001ZM11.9998 19.0001C12.4419 19.0001 12.8658 18.8245 13.1783 18.5119C13.4909 18.1994 13.6665 17.7754 13.6665 17.3334C13.6665 16.8914 13.4909 16.4675 13.1783 16.1549C12.8658 15.8423 12.4419 15.6667 11.9998 15.6667C11.5578 15.6667 11.1339 15.8423 10.8213 16.1549C10.5088 16.4675 10.3332 16.8914 10.3332 17.3334C10.3332 17.7754 10.5088 18.1994 10.8213 18.5119C11.1339 18.8245 11.5578 19.0001 11.9998 19.0001Z" fill="currentColor"/>
</svg>
