<svg width="233" height="202" viewBox="0 0 233 202" fill="none" xmlns="http://www.w3.org/2000/svg">
<path d="M101.624 31.8C100.624 31.7 99.7239 32 98.9239 32.7C98.1239 33.3 97.7239 34.2 97.6239 35.2L94.3239 80C94.1239 82 95.7239 83.8 97.7239 84C97.8239 84 97.9239 84 98.0239 84C98.4239 84 98.9239 83.9 99.3239 83.8C100.624 83.3 101.624 82 101.724 80.6L105.024 35.8C105.224 33.7 103.624 31.9 101.624 31.8Z" fill="currentColor"/>
<path d="M88.1239 103.9C88.1239 103.8 88.4239 100.4 91.4239 99.2001L100.024 96.0001C100.924 95.6001 101.724 95.0001 102.124 94.1001C102.524 93.2001 102.524 92.2001 102.224 91.3001C101.824 90.4001 101.224 89.6001 100.324 89.2001C99.4239 88.8001 98.4239 88.8001 97.5239 89.1001L88.9239 92.3001C82.9239 94.6001 81.0239 100.4 80.9239 103.4L79.0239 128.3C78.8239 129.9 78.3239 138 83.0239 141.6C84.1239 142.5 85.7239 143.3 88.0239 143.3C89.2239 143.3 90.7239 143.1 92.3239 142.4L100.224 139.4C102.124 138.7 103.124 136.5 102.424 134.6C101.724 132.7 99.5239 131.7 97.6239 132.4L89.7239 135.4C89.6239 135.5 88.6239 135.6 87.7239 134.9C86.9239 134.2 85.9239 132.7 86.4239 128.9L88.1239 103.9Z" fill="currentColor"/>
<path d="M132.724 30.6C133.424 30.9 134.424 32.2 133.924 37.3L131.824 65.7C131.624 67.7 133.224 69.5 135.224 69.7C135.724 69.7 136.324 69.7 136.824 69.5C138.124 69 139.124 67.7 139.224 66.3L141.324 38.2C141.424 37.7 141.724 34.8 141.624 31.8C141.524 26.1 139.924 22.7 136.924 21.3C133.524 19.7 129.424 21.3 124.524 26.3C124.424 26.2 124.224 26.2 124.124 26.1C121.624 24.9 118.724 25.5 115.424 27.8C114.924 27.4 114.224 27.2 113.624 27.1C112.624 27 111.724 27.3 110.924 28C110.124 28.6 109.724 29.5 109.624 30.5L106.324 75.3C106.224 76.3 106.524 77.2 107.224 78C107.824 78.8 108.724 79.2 109.724 79.3C109.824 79.3 109.924 79.3 110.024 79.3C110.424 79.3 110.924 79.2 111.324 79.1C112.624 78.6 113.624 77.3 113.724 75.9L116.624 36.7C118.024 35.3 119.224 34.6 120.024 35C120.624 35.3 121.624 36.6 121.124 42.2L119.024 70.6C118.824 72.6 120.424 74.4 122.424 74.6C122.924 74.6 123.524 74.6 124.024 74.4C125.324 73.9 126.324 72.6 126.424 71.2L128.524 43.1C128.624 42.6 128.924 39.7 128.824 36.7C128.824 35.4 128.724 34.1 128.524 33L128.624 32.9C130.224 31 131.724 30.2 132.724 30.6Z" fill="currentColor"/>
<path d="M119.024 110.2L118.324 127.8C118.224 129.8 119.824 131.6 121.924 131.7C122.424 131.7 122.924 131.6 123.424 131.5C124.824 131 125.724 129.7 125.824 128.2L126.524 110.8C126.624 110 126.924 107.4 126.824 104.5C126.724 98.8002 125.124 95.4002 122.124 94.0002C120.024 93.0002 117.524 93.3002 114.924 94.8002L115.424 87.4002C115.524 86.4002 115.124 85.5002 114.524 84.7002C113.824 84.0002 112.924 83.5002 111.924 83.5002C110.924 83.4002 110.024 83.8002 109.224 84.4002C108.524 85.1002 108.024 86.0002 108.024 87.0002L105.124 133C105.024 134 105.424 134.9 106.024 135.7C106.724 136.4 107.624 136.9 108.624 136.9C108.724 136.9 108.824 136.9 108.824 136.9C109.224 136.9 109.724 136.8 110.124 136.7C111.524 136.2 112.424 134.9 112.524 133.5L114.324 105.1C114.424 104 115.324 102.7 116.324 102.2C116.724 102 117.324 101.9 117.924 102.2C118.624 102.7 119.724 104.4 119.124 110.3C119.024 110 119.024 110.1 119.024 110.2Z" fill="currentColor"/>
<path d="M57.824 113.3C57.624 115.3 59.024 117.2 61.124 117.4C61.224 117.4 61.424 117.4 61.524 117.4C61.924 117.4 62.424 117.3 62.824 117.2C64.124 116.7 65.024 115.5 65.224 114.1L70.024 71.9L83.124 66.9L81.624 84.8C81.524 85.8 81.824 86.8 82.524 87.5C83.124 88.3 84.024 88.7 85.024 88.8C86.024 88.9 87.024 88.6 87.724 87.9C88.524 87.3 88.924 86.4 89.024 85.4L92.924 40.4C93.024 39.1 92.524 37.9 91.424 37.1C90.424 36.3 89.024 36.1 87.824 36.6C65.324 45.1 63.524 62.2 63.424 64.1L63.124 66.5L40.724 74.8C42.424 56.9 50.524 40.3 63.624 28C77.524 15.1 95.424 8 114.324 8C142.224 8 168.224 24.2 180.624 49.3C181.424 50.8 183.224 51.5 184.824 50.9L186.024 50.4C186.924 50.1 187.624 49.4 188.024 48.5C188.324 47.6 188.324 46.7 187.924 45.8C174.124 18 145.324 0 114.324 0C93.224 0 73.124 8.1 57.724 22.8C42.524 37.4 33.624 56.9 32.524 77.9L2.42396 89C0.523965 89.7 -0.476035 91.9 0.223965 93.8C0.623965 94.7 1.22396 95.5 2.12396 95.9C3.12396 96.3 4.12396 96.3 5.02396 96L62.224 74.8L57.824 113.3ZM71.024 63.5C71.524 60.7 73.924 52.1 84.924 46L83.824 58.6L71.024 63.5Z" fill="currentColor"/>
<path d="M231.924 56.7C231.524 55.8 230.924 55 230.024 54.6C229.124 54.2 228.124 54.2 227.224 54.5L165.024 77.5L165.524 69.6C165.624 67.6 164.124 65.8 162.024 65.7C161.024 65.6 160.124 66 159.324 66.6C158.624 67.3 158.124 68.2 158.124 69.2L157.424 80.5L153.724 81.9C152.824 82.3 152.024 82.9 151.624 83.8C151.224 84.7 151.224 85.7 151.524 86.6C152.224 88.5 154.424 89.5 156.324 88.8L156.924 88.6L156.224 99.3C156.124 100.1 155.724 102.7 155.724 105.6C155.724 111.3 157.224 114.8 160.224 116.2C161.924 117 163.824 117.1 165.824 116.3C169.024 115.1 172.124 112 174.124 109.9C175.524 108.4 175.424 106.1 173.924 104.7C173.224 104 172.224 103.7 171.224 103.7C170.224 103.7 169.324 104.2 168.624 104.9C165.824 107.9 164.224 108.9 163.424 109.3C162.924 107.6 162.924 103.7 163.424 100.3C163.424 100.2 163.424 100.1 163.424 99.9L164.324 85.7L187.824 77C187.924 78.7 188.024 80.4 188.024 82C188.024 98.6 182.624 114.3 172.424 127.4L167.324 133.3C166.724 134 166.024 134.6 165.424 135.2L122.424 178.2C121.724 178.9 120.724 179.1 119.824 178.7C118.924 178.3 118.324 177.4 118.324 176.5L118.224 155.8H117.824C116.624 155.9 115.324 155.9 114.124 155.9C96.524 155.9 79.424 149.6 66.024 138C55.024 128.5 47.124 116.2 43.124 102.3C42.824 101.4 42.224 100.6 41.424 100.2C40.624 99.8 39.724 99.7 38.824 100.1C36.424 101 35.124 103.6 35.924 105.9C45.324 136.7 72.024 159.2 104.024 163.2L108.124 163.7C109.324 163.9 110.224 164.9 110.224 166.1V201.8L172.424 139.6L173.224 138.7C187.924 123.3 196.024 103.2 196.024 82C196.024 79.4 195.924 76.8 195.624 74.2L229.524 61.6C231.724 60.7 232.724 58.6 231.924 56.7Z" fill="currentColor"/>
<path d="M107.024 25.4999C107.624 24.1999 107.624 22.6999 107.124 21.3999C106.624 20.0999 105.624 18.9999 104.324 18.3999C103.024 17.7999 101.524 17.7999 100.224 18.2999C98.924 18.7999 97.824 19.7999 97.224 21.0999C96.624 22.3999 96.624 23.8999 97.124 25.1999C97.924 27.3999 100.024 28.6999 102.124 28.6999C102.724 28.6999 103.424 28.5999 104.024 28.3999C105.324 27.8999 106.424 26.8999 107.024 25.4999Z" fill="currentColor"/>
<path d="M143.524 85.4001L141.024 86.0001C140.924 86.0001 140.724 86.1001 140.624 86.1001C131.124 89.7001 130.124 95.6001 130.024 97.3001C129.924 98.5001 129.024 109.3 129.424 116.4C129.624 120.4 130.924 123.2 133.224 124.6C134.324 125.3 135.424 125.5 136.324 125.5C137.424 125.5 138.224 125.2 138.624 125.1L147.024 121.9C148.424 121.4 149.324 120.1 149.424 118.6C149.424 118.4 150.224 100.6 150.824 88.7001V88.6001C151.024 85.3001 151.124 82.7001 151.324 81.0001C151.624 76.7001 150.524 73.7001 148.024 72.1001C146.824 71.3001 144.624 70.5001 141.424 71.3001C140.224 71.6001 139.324 72.0001 138.824 72.3001L132.124 74.8001C130.224 75.5001 129.224 77.7001 129.924 79.6001C130.324 80.5001 130.924 81.3001 131.824 81.7001C132.724 82.1001 133.724 82.1001 134.624 81.8001L141.524 79.2001C141.724 79.1001 141.824 79.1001 141.924 79.0001C142.424 78.7001 143.224 78.5001 143.624 78.4001C143.724 78.7001 143.824 79.4001 143.724 80.4001C143.824 81.6001 143.724 83.4001 143.524 85.4001ZM137.424 97.8001V97.7001C137.524 97.2001 138.424 95.0001 143.024 93.2001H143.124C142.724 101.9 142.224 111.7 142.024 115.8L136.924 117.7C136.824 117.3 136.724 116.8 136.724 116C136.424 109.1 137.424 98.0001 137.424 97.8001Z" fill="currentColor"/>
</svg>
