<svg width="24" height="24" viewBox="0 0 24 24" fill="none" xmlns="http://www.w3.org/2000/svg">
<path d="M11.9998 7.55762C10.6524 7.55762 9.55664 8.65374 9.55664 10.001C9.55664 11.3485 10.6526 12.4444 11.9998 12.4444C13.3471 12.4444 14.443 11.3485 14.443 10.001C14.443 8.65374 13.3473 7.55762 11.9998 7.55762ZM11.9998 11.1594C11.3612 11.1594 10.8419 10.6398 10.8419 10.0012C10.8419 9.36259 11.3612 8.84307 11.9998 8.84307C12.6384 8.84307 13.1578 9.36259 13.1578 10.0012C13.1578 10.6398 12.6384 11.1594 11.9998 11.1594Z" fill="currentColor"/>
<path d="M12 2C7.5888 2 4 5.58941 4 10.001C4 10.9746 4.17619 11.9214 4.51336 12.8124C4.66408 13.18 5.27478 14.5356 6.56372 15.8519C6.61526 15.8993 6.66249 15.9517 6.71485 15.9979L12.0002 21.6126L17.3065 15.9755L18.1369 15.0895C18.672 14.4202 19.0369 13.7935 19.2618 13.352C19.7474 12.3087 20 11.1737 20 10.0012C19.9998 5.58941 16.4108 2 12 2ZM17.3381 14.0615L12 19.7374L7.62925 15.0946L7.58449 15.0513C7.27216 14.7786 6.98324 14.4736 6.72451 14.1445L6.66146 14.0617C5.76083 12.8795 5.28504 11.4756 5.28504 10.0012C5.28504 6.29847 8.29724 3.28566 11.9998 3.28566C15.7017 3.28566 18.7141 6.29826 18.7141 10.0012C18.7143 11.4756 18.2386 12.8795 17.3381 14.0615Z" fill="currentColor"/>
</svg>
