<svg width="24" height="24" viewBox="0 0 24 24" fill="none" xmlns="http://www.w3.org/2000/svg">
<path d="M14.8525 14.2773C14.5303 13.9121 14.1758 13.5898 13.7891 13.3105C13.4023 13.0313 12.987 12.7913 12.543 12.5908C12.099 12.3903 11.6478 12.2435 11.1895 12.1504C10.7311 12.0573 10.2513 12.0072 9.75 12C9.11979 12 8.51107 12.0824 7.92383 12.2471C7.33659 12.4118 6.78874 12.641 6.28027 12.9346C5.77181 13.2282 5.3099 13.5863 4.89453 14.0088C4.47917 14.4313 4.12109 14.8968 3.82031 15.4053C3.51953 15.9137 3.28678 16.4616 3.12207 17.0488C2.95736 17.6361 2.875 18.2448 2.875 18.875H1.5C1.5 18.0156 1.62533 17.1885 1.87598 16.3936C2.12663 15.5986 2.48828 14.8646 2.96094 14.1914C3.43359 13.5182 3.99219 12.9202 4.63672 12.3975C5.28125 11.8747 6.01172 11.4629 6.82812 11.1621C6.01888 10.6322 5.38867 9.96615 4.9375 9.16406C4.48633 8.36198 4.25716 7.47396 4.25 6.5C4.25 5.74089 4.39323 5.02832 4.67969 4.3623C4.96615 3.69629 5.35645 3.11263 5.85059 2.61133C6.34473 2.11003 6.92839 1.71615 7.60156 1.42969C8.27474 1.14323 8.99089 1 9.75 1C10.5091 1 11.2217 1.14323 11.8877 1.42969C12.5537 1.71615 13.1374 2.10645 13.6387 2.60059C14.14 3.09473 14.5339 3.67839 14.8203 4.35156C15.1068 5.02474 15.25 5.74089 15.25 6.5C15.25 6.97266 15.1927 7.43457 15.0781 7.88574C14.9635 8.33691 14.7917 8.76302 14.5625 9.16406C14.3333 9.5651 14.0648 9.93392 13.7568 10.2705C13.4489 10.6071 13.0872 10.9043 12.6719 11.1621C13.2734 11.3913 13.8392 11.6849 14.3691 12.043C14.8991 12.401 15.3825 12.82 15.8193 13.2998L14.8525 14.2773ZM5.625 6.5C5.625 7.07292 5.73242 7.60645 5.94727 8.10059C6.16211 8.59473 6.45573 9.03158 6.82812 9.41113C7.20052 9.79069 7.63737 10.0879 8.13867 10.3027C8.63997 10.5176 9.17708 10.625 9.75 10.625C10.3158 10.625 10.8493 10.5176 11.3506 10.3027C11.8519 10.0879 12.2887 9.79427 12.6611 9.42188C13.0335 9.04948 13.3307 8.61263 13.5527 8.11133C13.7747 7.61003 13.8822 7.07292 13.875 6.5C13.875 5.93425 13.7676 5.40072 13.5527 4.89941C13.3379 4.39811 13.0443 3.96126 12.6719 3.58887C12.2995 3.21647 11.859 2.91927 11.3506 2.69727C10.8421 2.47526 10.3086 2.36784 9.75 2.375C9.17708 2.375 8.64355 2.48242 8.14941 2.69727C7.65527 2.91211 7.21842 3.20573 6.83887 3.57812C6.45931 3.95052 6.16211 4.39095 5.94727 4.89941C5.73242 5.40788 5.625 5.94141 5.625 6.5ZM21.3516 10.625C21.6523 10.625 21.9316 10.6787 22.1895 10.7861C22.4473 10.8936 22.6764 11.0404 22.877 11.2266C23.0775 11.4128 23.2279 11.6383 23.3281 11.9033C23.4284 12.1683 23.4857 12.4512 23.5 12.752C23.5 13.0313 23.4463 13.3034 23.3389 13.5684C23.2314 13.8333 23.0775 14.0661 22.877 14.2666L15.1748 21.9688L11.125 22.9785L12.1348 18.9287L19.8369 11.2373C20.0446 11.0296 20.2773 10.8757 20.5352 10.7754C20.793 10.6751 21.0651 10.625 21.3516 10.625ZM21.8994 13.2998C22.0498 13.1494 22.125 12.9668 22.125 12.752C22.125 12.5299 22.0534 12.3509 21.9102 12.2148C21.7669 12.0788 21.5807 12.0072 21.3516 12C21.2513 12 21.1546 12.0143 21.0615 12.043C20.9684 12.0716 20.8861 12.1253 20.8145 12.2041L13.3809 19.6377L13.0156 21.0879L14.4658 20.7227L21.8994 13.2998Z" fill="currentColor"/>
</svg>
