<svg width="24" height="24" viewBox="0 0 24 24" fill="none" xmlns="http://www.w3.org/2000/svg">
<path d="M17.125 17.5H16.9854C16.8206 16.6979 16.5306 15.9603 16.1152 15.2871C15.6999 14.6139 15.195 14.0339 14.6006 13.5469C14.0062 13.0599 13.3366 12.6803 12.5918 12.4082C11.847 12.1361 11.0664 12 10.25 12C9.61979 12 9.01107 12.0824 8.42383 12.2471C7.83659 12.4118 7.28874 12.641 6.78027 12.9346C6.27181 13.2282 5.8099 13.5863 5.39453 14.0088C4.97917 14.4313 4.62109 14.8968 4.32031 15.4053C4.01953 15.9137 3.78678 16.4616 3.62207 17.0488C3.45736 17.6361 3.375 18.2448 3.375 18.875H2C2 18.0156 2.12533 17.1885 2.37598 16.3936C2.62663 15.5986 2.98828 14.8646 3.46094 14.1914C3.93359 13.5182 4.49219 12.9202 5.13672 12.3975C5.78125 11.8747 6.51172 11.4629 7.32812 11.1621C6.51888 10.6322 5.88867 9.96615 5.4375 9.16406C4.98633 8.36198 4.75716 7.47396 4.75 6.5C4.75 5.74089 4.89323 5.02832 5.17969 4.3623C5.46615 3.69629 5.85645 3.11263 6.35059 2.61133C6.84473 2.11003 7.42839 1.71615 8.10156 1.42969C8.77474 1.14323 9.49089 1 10.25 1C11.0091 1 11.7217 1.14323 12.3877 1.42969C13.0537 1.71615 13.6374 2.10645 14.1387 2.60059C14.64 3.09473 15.0339 3.67839 15.3203 4.35156C15.6068 5.02474 15.75 5.74089 15.75 6.5C15.75 6.97266 15.6927 7.43457 15.5781 7.88574C15.4635 8.33691 15.2917 8.76302 15.0625 9.16406C14.8333 9.5651 14.5648 9.93392 14.2568 10.2705C13.9489 10.6071 13.5872 10.9043 13.1719 11.1621C13.974 11.4701 14.7116 11.8926 15.3848 12.4297C16.0579 12.9668 16.638 13.597 17.125 14.3203V17.5ZM6.125 6.5C6.125 7.07292 6.23242 7.60645 6.44727 8.10059C6.66211 8.59473 6.95573 9.03158 7.32812 9.41113C7.70052 9.79069 8.13737 10.0879 8.63867 10.3027C9.13997 10.5176 9.67708 10.625 10.25 10.625C10.8158 10.625 11.3493 10.5176 11.8506 10.3027C12.3519 10.0879 12.7887 9.79427 13.1611 9.42188C13.5335 9.04948 13.8307 8.61263 14.0527 8.11133C14.2747 7.61003 14.3822 7.07292 14.375 6.5C14.375 5.93424 14.2676 5.40072 14.0527 4.89941C13.8379 4.39811 13.5443 3.96126 13.1719 3.58887C12.7995 3.21647 12.359 2.91927 11.8506 2.69727C11.3421 2.47526 10.8086 2.36784 10.25 2.375C9.67708 2.375 9.14355 2.48242 8.64941 2.69727C8.15527 2.91211 7.71842 3.20573 7.33887 3.57812C6.95931 3.95052 6.66211 4.39095 6.44727 4.89941C6.23242 5.40788 6.125 5.94141 6.125 6.5ZM19.875 18.875H22.625V20.25H19.875V23H18.5V20.25H15.75V18.875H18.5V16.125H19.875V18.875Z" fill="currentColor"/>
</svg>
